Patient4_TMGait_0pt7_02_left_46_GRF.mot
version=1
nRows=78
nColumns=19
inDegrees=no
endheader
time	F1x	F1y	F1z	M1x	M1y	M1z	F2x	F2y	F2z	M2x	M2y	M2z	EC1x	EC1y	EC1z	EC2x	EC2y	EC2z
52.65	-9.7947	20.971	0.16751	-5.3846	-1.169	33.7646	-47.2088	765.8939	-68.3451	296.9893	79.9883	807.7037	-0.0592	0.0182	-0.0073	-0.0462	0.0165	0.9585
52.6613	-6.9018	15.1149	0.15448	-3.9771	-0.86638	23.9023	-43.2224	762.9817	-69.7931	295.2866	83.5491	801.4518	-0.0592	0.0182	-0.0073	-0.0462	0.0165	0.9585
52.6726	-4.3878	10.2849	0.15402	-2.8065	-0.63259	15.6578	-39.5456	760.7977	-70.5392	294.034	85.8359	795.047	-0.0592	0.0182	-0.0073	-0.0462	0.0165	0.9585
52.6839	-2.386	6.6808	0.17438	-1.9332	-0.4668	9.4258	-36.284	759.5499	-70.641	293.3469	86.7673	788.8043	-0.0592	0.0182	-0.0073	-0.0462	0.0165	0.9585
52.6951	-0.99271	4.2605	0.20266	-1.3527	-0.37514	5.2176	-33.3935	759.2105	-70.1176	293.1971	86.3718	782.8425	-0.0592	0.0182	-0.0073	-0.0462	0.0165	0.9585
52.7064	-0.084885	2.8056	0.24248	-1.0129	-0.33632	2.639	-30.7308	759.3425	-69.1307	293.3816	84.8826	776.8654	-0.0592	0.0182	-0.0073	-0.0462	0.0165	0.9585
52.7177	0.39467	2.0687	0.28313	-0.84808	-0.34215	1.3213	-28.1256	759.3249	-67.816	293.6172	82.53	770.4052	-0.0592	0.0182	-0.0073	-0.0462	0.0165	0.9585
52.729	0.60315	1.7497	0.3401	-0.77789	-0.38477	0.75608	-25.3728	758.4852	-66.2668	293.6003	79.5058	762.9112	-0.0592	0.0182	-0.0073	-0.0462	0.0165	0.9585
52.7403	0.60196	1.6132	0.39895	-0.73455	-0.4547	0.58952	-22.3653	756.1562	-64.6133	293.0408	76.0435	753.8481	-0.0592	0.0182	-0.0073	-0.0462	0.0165	0.9585
52.7516	0.50655	1.3825	0.47743	-0.63729	-0.557	0.4013	-18.9753	751.9477	-62.8761	291.7568	72.2373	742.9154	-0.0592	0.0182	-0.0073	-0.0462	0.0165	0.9585
52.7629	0.33117	0.86333	0.54861	-0.42502	-0.67362	-0.063264	-15.1719	745.7066	-61.193	289.6662	68.2886	730.0421	-0.0592	0.0182	-0.0073	-0.0462	0.0165	0.9585
52.7741	0.1546	-0.1555	0.62654	-0.036071	-0.80284	-1.0806	-10.9361	737.6109	-59.5809	286.8276	64.2639	715.44	-0.0592	0.0182	-0.0073	-0.0462	0.0165	0.9585
52.7854	-0.027442	-1.7878	0.67919	0.56071	-0.90777	-2.7809	-6.2631	728.2345	-58.1712	283.4446	60.3287	699.7178	-0.0592	0.0182	-0.0073	-0.0462	0.0165	0.9585
52.7967	-0.15307	-4.0627	0.69922	1.3689	-0.95764	-5.2195	-1.2304	718.3629	-56.9808	279.8235	56.5328	683.6415	-0.0592	0.0182	-0.0073	-0.0462	0.0165	0.9585
52.808	-0.1963	-6.8346	0.64009	2.3326	-0.88782	-8.235	4.137	709.0623	-56.0862	276.3606	52.9632	668.2369	-0.0592	0.0182	-0.0073	-0.0462	0.0165	0.9585
52.8193	-0.083913	-9.7101	0.46316	3.3136	-0.63243	-11.3992	9.7101	701.3163	-55.5155	273.4336	49.6722	654.4286	-0.0592	0.0182	-0.0073	-0.0462	0.0165	0.9585
52.8306	0.25192	-11.9522	0.1235	4.0548	-0.11056	-13.8771	15.3938	696.0105	-55.2801	271.373	46.6915	643.0571	-0.0592	0.0182	-0.0073	-0.0462	0.0165	0.9585
52.8419	0.88527	-12.3862	-0.4489	4.1478	0.77688	-14.347	21.035	693.706	-55.429	270.3866	44.102	634.6759	-0.0592	0.0182	-0.0073	-0.0462	0.0165	0.9585
52.8531	1.8823	-9.2967	-1.2799	3.0003	2.0832	-10.8771	26.4852	694.4819	-55.9099	270.5087	41.8911	629.3749	-0.0592	0.0182	-0.0073	-0.0462	0.0165	0.9585
52.8644	3.2782	-0.4294	-2.4122	-0.16208	3.8557	-0.92222	31.6257	697.9418	-56.7253	271.5843	40.0988	626.8532	-0.0592	0.0182	-0.0073	-0.0462	0.0165	0.9585
52.8757	5.0324	16.8836	-3.7746	-6.2501	5.9962	18.5227	36.3332	703.0507	-57.74	273.2397	38.6411	626.2016	-0.0592	0.0182	-0.0073	-0.0462	0.0165	0.9585
52.887	6.9699	45.3835	-5.246	-16.1917	8.2941	50.575	40.5334	708.3814	-58.8168	274.9429	37.4296	626.1898	-0.0592	0.0182	-0.0073	-0.0462	0.0165	0.9585
52.8983	8.7582	87.1931	-6.504	-30.6899	10.2649	97.6324	44.1971	712.0608	-59.6993	276.0079	36.255	625.1635	-0.0592	0.0182	-0.0073	-0.0462	0.0165	0.9585
52.9096	9.7611	142.81	-7.0495	-49.8662	11.117	160.3007	47.2876	712.0231	-60.0877	275.6712	34.8798	621.3485	-0.0592	0.0182	-0.0073	-0.0462	0.0165	0.9585
52.9209	9.0916	209.4725	-6.1171	-72.7051	9.6652	235.5128	49.8024	706.1445	-59.678	273.1492	33.0574	612.908	-0.0592	0.0182	-0.0073	-0.0462	0.0165	0.9585
52.9321	5.401	279.8145	-2.694	-96.5929	4.3324	315.0211	51.6671	692.4322	-58.1784	267.7023	30.579	598.1693	-0.0592	0.0182	-0.0073	-0.0462	0.0165	0.9585
52.9434	-1.5955	342.6196	4.0841	-117.6679	-5.8405	386.0839	52.7952	669.2935	-55.4905	258.7323	27.4173	575.7768	-0.0592	0.0182	-0.0073	-0.0462	0.0165	0.9585
52.9547	-9.8687	390.0651	13.5231	-133.3389	-19.2844	439.4978	53.0572	635.8817	-51.6823	245.9055	23.71	545.0175	-0.0592	0.0182	-0.0073	-0.0462	0.0165	0.9585
52.966	-18.2865	422.9429	23.7051	-143.9496	-33.4885	475.8531	52.3341	592.363	-47.0816	229.243	19.7983	506.0439	-0.0592	0.0182	-0.0073	-0.0462	0.0165	0.9585
52.9773	-26.2014	446.7784	33.6773	-151.4594	-47.1385	501.2454	50.5503	539.8805	-42.1753	209.1266	16.1189	459.8382	-0.0592	0.0182	-0.0073	-0.0462	0.0165	0.9585
52.9886	-33.1077	467.5496	42.1306	-158.0133	-58.6746	522.3285	47.6626	480.3728	-37.4042	186.253	13.0449	408.0373	-0.0592	0.0182	-0.0073	-0.0462	0.0165	0.9585
52.9999	-38.4594	489.4977	48.6945	-165.1011	-67.5037	543.9378	43.6056	416.4231	-32.9619	161.5915	10.7474	352.8418	-0.0592	0.0182	-0.0073	-0.0462	0.0165	0.9585
53.0111	-41.9088	514.1581	53.0864	-173.2865	-73.2453	567.81	38.3667	351.0052	-28.8515	136.2933	9.2328	296.7588	-0.0592	0.0182	-0.0073	-0.0462	0.0165	0.9585
53.0224	-43.3566	541.2187	55.6847	-182.4295	-76.287	593.5872	32.0144	287.2676	-25.0202	111.59	8.4239	242.4464	-0.0592	0.0182	-0.0073	-0.0462	0.0165	0.9585
53.0337	-42.8074	569.292	57.3086	-192.0027	-77.5313	619.8439	24.893	228.1565	-21.4394	88.6431	8.165	192.3388	-0.0592	0.0182	-0.0073	-0.0462	0.0165	0.9585
53.045	-40.5515	597.1508	58.6696	-201.5131	-77.8641	645.2817	17.5374	176.0625	-18.1357	68.3892	8.257	148.3822	-0.0592	0.0182	-0.0073	-0.0462	0.0165	0.9585
53.0563	-36.9163	623.7822	60.4481	-210.5574	-78.1367	668.9528	10.6617	132.3313	-15.1696	51.3639	8.469	111.5978	-0.0592	0.0182	-0.0073	-0.0462	0.0165	0.9585
53.0676	-32.4236	648.3823	62.7378	-218.8435	-78.65	690.0892	4.7878	97.2141	-12.5579	37.6745	8.5928	82.1195	-0.0592	0.0182	-0.0073	-0.0462	0.0165	0.9585
53.0789	-27.6152	670.4214	65.5203	-226.1932	-79.5647	708.2058	0.22781	70.0359	-10.2897	27.0738	8.4976	59.3078	-0.0592	0.0182	-0.0073	-0.0462	0.0165	0.9585
53.0901	-22.8139	689.7255	68.2791	-232.5861	-80.4678	723.2534	-3.0313	49.6058	-8.3276	19.1097	8.1447	42.1618	-0.0592	0.0182	-0.0073	-0.0462	0.0165	0.9585
53.1014	-18.2173	706.421	70.5536	-238.0982	-80.9395	735.4174	-5.0703	34.5458	-6.6159	13.2526	7.5256	29.5116	-0.0592	0.0182	-0.0073	-0.0462	0.0165	0.9585
53.1127	-13.9643	720.4633	72.0568	-242.738	-80.7161	744.78	-6.0908	23.5573	-5.1009	8.9959	6.6717	20.292	-0.0592	0.0182	-0.0073	-0.0462	0.0165	0.9585
53.124	-10.1255	731.6853	72.7838	-246.4426	-79.7989	751.2605	-6.2107	15.5381	-3.7478	5.9088	5.6088	13.556	-0.0592	0.0182	-0.0073	-0.0462	0.0165	0.9585
53.1353	-6.8555	739.8707	73.0567	-249.1113	-78.5423	754.7598	-5.6135	9.7026	-2.5479	3.6759	4.3956	8.6666	-0.0592	0.0182	-0.0073	-0.0462	0.0165	0.9585
53.1466	-4.1802	745.0769	73.0648	-250.7382	-77.1457	755.408	-4.4605	5.5313	-1.5278	2.0904	3.1218	5.1584	-0.0592	0.0182	-0.0073	-0.0462	0.0165	0.9585
53.1579	-2.1924	747.8034	73.044	-251.4598	-75.8821	753.7949	-3.1091	2.7811	-0.72793	1.0466	1.9545	2.8363	-0.0592	0.0182	-0.0073	-0.0462	0.0165	0.9585
53.1691	-0.89649	748.7932	72.9756	-251.5286	-74.7462	750.6587	-1.8404	1.1714	-0.15598	0.43762	1.003	1.4535	-0.0592	0.0182	-0.0073	-0.0462	0.0165	0.9585
53.1804	-0.20075	749.1342	72.8295	-251.3061	-73.7003	747.1113	-0.80058	0.41834	0.19774	0.15145	0.31775	0.80764	-0.0592	0.0182	-0.0073	-0.0462	0.0165	0.9585
53.1917	0.036129	749.8039	72.5769	-251.1323	-72.677	744.0451	-0.030698	0.20782	0.39915	0.07423	-0.14326	0.65214	-0.0592	0.0182	-0.0073	-0.0462	0.0165	0.9585
53.203	-0.036369	751.6718	72.1987	-251.2956	-71.6214	742.2691	0.49216	0.35169	0.47264	0.12641	-0.40429	0.83573	-0.0592	0.0182	-0.0073	-0.0462	0.0165	0.9585
53.2143	-0.21369	755.0693	71.856	-251.9097	-70.6276	742.0197	0.79112	0.66313	0.48534	0.2403	-0.53845	1.1721	-0.0592	0.0182	-0.0073	-0.0462	0.0165	0.9585
53.2256	-0.3885	759.9287	71.5534	-252.9574	-69.668	743.1435	0.94415	1.0485	0.45277	0.37795	-0.58017	1.5814	-0.0592	0.0182	-0.0073	-0.0462	0.0165	0.9585
53.2369	-0.35625	765.7305	71.4183	-254.2739	-68.8045	745.0715	0.98133	1.4358	0.41001	0.51558	-0.5753	1.995	-0.0592	0.0182	-0.0073	-0.0462	0.0165	0.9585
53.2481	-0.034445	771.6697	71.3754	-255.6104	-67.9347	746.9865	0.95197	1.7941	0.36474	0.64238	-0.54749	2.3815	-0.0592	0.0182	-0.0073	-0.0462	0.0165	0.9585
53.2594	0.68869	776.7846	71.4217	-256.6637	-67.0247	747.9251	0.89154	2.1115	0.31863	0.75494	-0.50931	2.7361	-0.0592	0.0182	-0.0073	-0.0462	0.0165	0.9585
53.2707	1.8233	780.1524	71.4472	-257.1456	-65.9667	747.0522	0.8174	2.3615	0.27747	0.84794	-0.47394	3.009	-0.0592	0.0182	-0.0073	-0.0462	0.0165	0.9585
53.282	3.3742	781.0487	71.3599	-256.8293	-64.6836	743.6731	0.74047	2.5735	0.2359	0.92901	-0.43789	3.2349	-0.0592	0.0182	-0.0073	-0.0462	0.0165	0.9585
53.2933	5.2608	779.0347	71.1445	-255.5752	-63.1885	737.4521	0.67547	2.6992	0.2036	0.986	-0.41227	3.353	-0.0592	0.0182	-0.0073	-0.0462	0.0165	0.9585
53.3046	7.4736	774.0461	70.764	-253.3622	-61.4621	728.3451	0.60545	2.7498	0.16262	1.0179	-0.37062	3.3862	-0.0592	0.0182	-0.0073	-0.0462	0.0165	0.9585
53.3159	9.8826	766.3923	70.3491	-250.2811	-59.6608	716.6953	0.54744	2.6539	0.1124	1.0002	-0.31793	3.241	-0.0592	0.0182	-0.0073	-0.0462	0.0165	0.9585
53.3271	12.5207	756.7545	69.9256	-246.5521	-57.8023	703.1414	0.4783	2.3609	0.04978	0.90595	-0.24376	2.8822	-0.0592	0.0182	-0.0073	-0.0462	0.0165	0.9585
53.3384	15.3448	746.0732	69.6426	-242.4785	-56.0295	688.5809	0.42248	1.7577	-0.027001	0.69056	-0.15357	2.1675	-0.0592	0.0182	-0.0073	-0.0462	0.0165	0.9585
53.3497	18.4222	735.4225	69.5201	-238.4165	-54.3407	673.9705	0.36777	0.75171	-0.10664	0.31296	-0.0556	1.0221	-0.0592	0.0182	-0.0073	-0.0462	0.0165	0.9585
53.361	21.7904	725.8958	69.6266	-234.7235	-52.7839	660.3108	0.36287	-0.78885	-0.18411	-0.27378	0.026423	-0.72333	-0.0592	0.0182	-0.0073	-0.0462	0.0165	0.9585
53.3723	25.4983	718.4157	69.9828	-231.7063	-51.3604	648.398	0.39068	-2.8923	-0.24069	-1.0857	0.070087	-3.0844	-0.0592	0.0182	-0.0073	-0.0462	0.0165	0.9585
53.3836	29.5758	713.6725	70.6134	-229.5884	-50.0809	638.8605	0.5066	-5.553	-0.25122	-2.1147	0.027569	-6.065	-0.0592	0.0182	-0.0073	-0.0462	0.0165	0.9585
53.3949	34.0256	712.0027	71.5841	-228.4755	-48.9971	631.9896	0.69326	-8.5322	-0.1861	-3.2713	-0.13377	-9.3779	-0.0592	0.0182	-0.0073	-0.0462	0.0165	0.9585
53.4061	38.7789	713.4012	72.8841	-228.3625	-48.1041	627.7824	1.0137	-11.384	-0.00090289	-4.3739	-0.47596	-12.5487	-0.0592	0.0182	-0.0073	-0.0462	0.0165	0.9585
53.4174	43.7571	717.5007	74.5514	-229.1296	-47.4482	625.9481	1.4464	-13.2521	0.34558	-5.0845	-1.04	-14.6063	-0.0592	0.0182	-0.0073	-0.0462	0.0165	0.9585
53.4287	48.797	723.6127	76.4901	-230.5592	-46.9885	625.9368	2.0255	-12.8326	0.89274	-4.8832	-1.8725	-14.1244	-0.0592	0.0182	-0.0073	-0.0462	0.0165	0.9585
53.44	53.7138	730.7732	78.622	-232.3434	-46.7185	626.977	2.651	-8.2573	1.6671	-3.035	-2.9678	-8.9949	-0.0592	0.0182	-0.0073	-0.0462	0.0165	0.9585
53.4513	58.2891	737.7464	80.7281	-234.0964	-46.5365	628.1091	3.2683	2.8288	2.6559	1.3889	-4.2717	3.3966	-0.0592	0.0182	-0.0073	-0.0462	0.0165	0.9585
53.4626	62.256	743.0581	82.5623	-235.3652	-46.3352	628.1657	3.6271	23.1379	3.7869	9.4476	-5.6029	26.0885	-0.0592	0.0182	-0.0073	-0.0462	0.0165	0.9585
53.4739	65.4083	745.0811	83.792	-235.6519	-45.9276	625.8899	3.4793	55.251	4.8884	22.1468	-6.6443	61.9441	-0.0592	0.0182	-0.0073	-0.0462	0.0165	0.9585
53.4851	67.5817	742.0792	84.0823	-234.4258	-45.1072	619.9086	2.3682	100.9171	5.6468	40.1458	-6.8564	112.9289	-0.0592	0.0182	-0.0073	-0.0462	0.0165	0.9585
53.4964	68.7058	732.3363	83.1181	-231.1597	-43.6652	608.8613	-0.22809	159.8591	5.5821	63.2989	-5.477	178.6898	-0.0592	0.0182	-0.0073	-0.0462	0.0165	0.9585
53.5077	68.8165	714.2228	80.6366	-225.3556	-41.3964	591.4348	-5.2112	228.4541	4.1145	90.1234	-1.5201	255.1894	-0.0592	0.0182	-0.0073	-0.0462	0.0165	0.9585
53.519	67.9513	686.5015	76.4835	-216.6376	-38.1853	566.6064	-12.941	298.5989	0.59035	117.4106	5.8177	333.3095	-0.0592	0.0182	-0.0073	-0.0462	0.0165	0.9585
